<svg width="52" height="28" viewBox="0 0 52 28" fill="none" xmlns="http://www.w3.org/2000/svg">
<path d="M51.125 14C51.125 17.3899 48.5599 20.6576 43.9699 23.1291C39.4156 25.5814 33.0639 27.125 26 27.125C18.9361 27.125 12.5844 25.5814 8.03006 23.1291C3.44013 20.6576 0.875 17.3899 0.875 14C0.875 10.6101 3.44013 7.34242 8.03006 4.87092C12.5844 2.41861 18.9361 0.875 26 0.875C33.0639 0.875 39.4156 2.41861 43.9699 4.87092C48.5599 7.34242 51.125 10.6101 51.125 14Z" fill="#0D0D0D" stroke="#0D0D0D" stroke-width="1.75"/>
<path d="M28.5495 10.6917C29.2401 10.5915 29.7581 10.8133 30.1034 11.3569C30.1643 11.4571 30.2151 11.5572 30.2557 11.6574C30.2963 11.7861 30.3167 12.0222 30.3167 12.3655C30.3167 12.9378 30.1237 13.7747 29.7378 14.8764C29.169 16.4358 28.6206 17.5946 28.0925 18.3529C27.1378 19.7263 25.8683 20.413 24.2839 20.413C22.7402 20.413 21.6027 20.084 20.8715 19.4259L20.8105 19.3615L20.6887 19.4473C20.384 19.6905 20.1301 19.8622 19.927 19.9624C19.541 20.1484 19.1653 20.2771 18.7996 20.3486C17.8653 20.506 16.8801 20.4416 15.8442 20.1555C15.7223 20.1126 15.6106 20.0768 15.5091 20.0482C15.1028 19.9051 14.7778 19.7478 14.5341 19.5761C13.9044 19.1183 13.5896 18.4816 13.5896 17.6662C13.5896 16.9651 14.0161 15.7848 14.8692 14.1253C14.9302 14.0108 15.0013 13.882 15.0825 13.739C15.4481 12.9807 15.6513 12.4943 15.6919 12.2797C15.7934 11.9506 15.7427 11.7647 15.5395 11.7217C15.2958 11.6645 15.0114 11.7003 14.6864 11.829C14.2599 12.015 13.9247 12.3083 13.681 12.7089C13.4778 12.9664 13.2544 13.4028 13.0107 14.018C12.9497 14.1038 12.9091 14.1539 12.8888 14.1682C12.8482 14.1968 12.6044 14.2111 12.1576 14.2111H11.4873L11.3958 14.1467C11.3349 14.1038 11.3044 14.0466 11.3044 13.975C11.3451 13.7461 11.5177 13.3885 11.8224 12.902C12.188 12.3584 12.645 11.8791 13.1935 11.4642C13.5997 11.1924 14.006 10.9921 14.4122 10.8633C14.7372 10.7632 15.1333 10.7131 15.6005 10.7131C16.1083 10.7131 16.545 10.7775 16.9106 10.9063C17.1747 11.0064 17.3778 11.1137 17.52 11.2282C17.6825 11.3283 17.8348 11.4714 17.977 11.6574C18.1598 11.9292 18.2411 12.2153 18.2207 12.5158C18.2207 12.8019 18.0887 13.1953 17.8247 13.6961C17.8043 13.7676 17.7637 13.8534 17.7028 13.9536C16.8294 15.6704 16.352 16.865 16.2708 17.5374C16.1692 18.5389 16.5755 19.1326 17.4895 19.3186C17.9973 19.4473 18.434 19.433 18.7996 19.2756C19.0434 19.1898 19.2973 19.011 19.5613 18.7392C20.0082 18.2813 20.2215 17.9737 20.2012 17.8164C20.1606 17.7162 20.191 17.4086 20.2926 16.8936C20.3332 16.7076 20.6481 15.8063 21.2371 14.1896C21.8262 12.4585 22.1918 11.5286 22.334 11.3998C22.3543 11.3712 22.4051 11.3283 22.4863 11.2711C22.9332 10.9563 23.441 10.849 24.0097 10.9492C24.4972 11.0636 24.7613 11.2854 24.8019 11.6144C24.8019 11.7146 24.5175 12.5801 23.9488 14.2111C23.3597 15.8707 23.0449 16.7791 23.0043 16.9365C22.7808 17.752 22.8113 18.3743 23.0957 18.8035C23.2582 19.0467 23.4816 19.2041 23.766 19.2756C24.1722 19.4187 24.5886 19.4402 25.0152 19.34C25.5839 19.197 26.0816 18.8107 26.5081 18.1812C26.955 17.5374 27.4019 16.5788 27.8487 15.3056C28.0722 14.6761 28.1636 14.2254 28.1229 13.9536C28.0417 13.4528 27.7675 13.038 27.3003 12.7089C27.1378 12.5944 27.0261 12.4871 26.9651 12.387C26.9042 12.3012 26.8737 12.1724 26.8737 12.0007C26.8737 11.829 26.894 11.7003 26.9347 11.6144C27.1581 11.2568 27.4933 10.9993 27.9401 10.8419C28.1026 10.7703 28.3057 10.7203 28.5495 10.6917Z" fill="#FEFEFE"/>
<path d="M35.7834 6.85908C36.5146 6.73032 37.0427 6.85908 37.3677 7.24536C37.4693 7.37412 37.5302 7.51718 37.5505 7.67455C37.5505 7.88915 37.4795 8.0966 37.3373 8.29689C36.8701 8.75471 36.281 9.01938 35.5701 9.09091C35.3467 9.09091 35.1131 9.04799 34.8693 8.96215C34.6662 8.89062 34.5037 8.76186 34.3818 8.57587C34.3209 8.51865 34.2803 8.40419 34.26 8.23251C34.26 8.00361 34.3209 7.80332 34.4428 7.63164C34.7272 7.23105 35.174 6.97353 35.7834 6.85908ZM34.5573 10.7346C34.6995 10.706 34.9229 10.6917 35.2276 10.6917C35.6948 10.706 36.101 10.7775 36.4464 10.9063C36.7104 11.0064 36.9135 11.1137 37.0557 11.2282C37.2182 11.3283 37.3706 11.4714 37.5127 11.6574C37.6956 11.9292 37.7768 12.2153 37.7565 12.5158C37.7565 12.759 37.7362 12.9307 37.6955 13.0308C37.6752 13.0594 37.2182 13.9536 36.3245 15.7133C35.4714 17.3156 35.0143 18.2027 34.9534 18.3743C34.7503 18.8465 34.7198 19.1612 34.862 19.3186C34.9636 19.4044 35.1768 19.4187 35.5018 19.3615C36.294 19.2327 36.9338 18.5389 37.4213 17.2799C37.5229 17.051 37.6245 16.9294 37.726 16.9151C37.787 16.9007 38.0002 16.8936 38.3659 16.8936C38.8127 16.8936 39.0565 16.9079 39.0971 16.9365C39.219 16.9937 39.219 17.144 39.0971 17.3872C38.8737 17.9451 38.5385 18.4673 38.0916 18.9537C37.2792 19.8121 36.3549 20.2914 35.319 20.3916C34.9534 20.4488 34.5776 20.4345 34.1917 20.3486C33.7855 20.2628 33.4503 20.1555 33.1862 20.0267C32.7394 19.7692 32.4449 19.4044 32.3027 18.9323C32.2214 18.6605 32.2417 18.3743 32.3636 18.0739C32.4042 17.9594 32.8511 17.0796 33.7042 15.4343C34.4354 14.0609 34.9026 13.1596 35.1057 12.7304C35.3089 12.2869 35.3393 11.9793 35.1972 11.8076C35.1362 11.6931 34.9229 11.6717 34.5573 11.7432C33.948 11.8433 33.4097 12.294 32.9425 13.0952C32.6784 13.739 32.5464 14.0466 32.5464 14.018C32.4855 14.1038 32.4449 14.1539 32.4245 14.1682C32.3839 14.1968 32.1402 14.2111 31.6933 14.2111H31.023L30.9316 14.1467C30.8707 14.1038 30.8402 14.0466 30.8402 13.975C30.8808 13.7461 31.0535 13.3885 31.3581 12.902C31.6019 12.5301 31.8558 12.2225 32.1199 11.9793C32.3839 11.7217 32.7191 11.4642 33.1253 11.2067C33.5722 10.9635 34.0495 10.8061 34.5573 10.7346Z" fill="#FEFEFE"/>
</svg>
